<?xml version="1.0" encoding="utf-8"?>
<!-- Generator: Adobe Illustrator 18.0.0, SVG Export Plug-In . SVG Version: 6.00 Build 0)  -->
<!DOCTYPE svg PUBLIC "-//W3C//DTD SVG 1.1//EN" "http://www.w3.org/Graphics/SVG/1.1/DTD/svg11.dtd">
<svg version="1.1" id="Capa_1" xmlns="http://www.w3.org/2000/svg" xmlns:xlink="http://www.w3.org/1999/xlink" x="0px" y="0px"
	 width="36px" height="36px" viewBox="2.4 0.4 36 36" enable-background="new 2.4 0.4 36 36" xml:space="preserve">
<g>
	<path fill="#FFFFFF" d="M20.4,2.4c8.8,0,16,7.2,16,16s-7.2,16-16,16s-16-7.2-16-16S11.6,2.4,20.4,2.4 M20.4,0.4
		c-9.9,0-18,8.1-18,18c0,9.9,8.1,18,18,18s18-8.1,18-18C38.4,8.5,30.3,0.4,20.4,0.4L20.4,0.4z"/>
</g>
<path fill="#FFFFFF" d="M26.7,10.3L23.2,11v5.1c-0.8-1-1.9-1.5-3.3-1.5c-1.5,0-2.8,0.5-3.9,1.6c-1.2,1.2-1.9,2.7-1.9,4.4
	c0,1.8,0.7,3.4,2.1,4.6c1,0.9,2.3,1.4,3.7,1.4c1.4,0,2.5-0.4,3.5-1.4v1.4h3.3C26.7,26.6,26.7,10.3,26.7,10.3z M20.7,23.5
	c-1.8,0-3-1.2-3-2.9c0-1.6,1.3-2.9,2.9-2.9c1.6,0,2.9,1.3,2.9,3C23.4,22.3,22.2,23.5,20.7,23.5z"/>
</svg>
