<svg xmlns="http://www.w3.org/2000/svg" width="36" height="36" viewBox="2.4 0.4 36 36"><path fill="#FFF" d="M20.4 2.4c8.8 0 16 7.2 16 16s-7.2 16-16 16-16-7.2-16-16 7.2-16 16-16m0-2c-9.9 0-18 8.1-18 18s8.1 18 18 18 18-8.1 18-18-8.1-18-18-18z"/><path fill="#FFF" d="M26.7 10.3l-3.5.7v5.1c-.8-1-1.9-1.5-3.3-1.5-1.5 0-2.8.5-3.9 1.6-1.2 1.2-1.9 2.7-1.9 4.4 0 1.8.7 3.4 2.1 4.6 1 .9 2.3 1.4 3.7 1.4 1.4 0 2.5-.4 3.5-1.4v1.4h3.3V10.3zm-6 13.2c-1.8 0-3-1.2-3-2.9 0-1.6 1.3-2.9 2.9-2.9 1.6 0 2.9 1.3 2.9 3-.1 1.6-1.3 2.8-2.8 2.8z"/></svg>