<?xml version="1.0" encoding="utf-8"?>
<!-- Generator: Adobe Illustrator 18.0.0, SVG Export Plug-In . SVG Version: 6.00 Build 0)  -->
<!DOCTYPE svg PUBLIC "-//W3C//DTD SVG 1.1//EN" "http://www.w3.org/Graphics/SVG/1.1/DTD/svg11.dtd">
<svg version="1.1" id="Capa_1" xmlns="http://www.w3.org/2000/svg" xmlns:xlink="http://www.w3.org/1999/xlink" x="0px" y="0px"
	 width="36px" height="36px" viewBox="1.8 5 36 36" enable-background="new 1.8 5 36 36" xml:space="preserve">
<path fill="#FFFFFF" d="M15.8,20.3h1.7v-1.7c0-0.7,0-1.9,0.5-2.6c0.6-0.7,1.3-1.2,2.6-1.2c2.2,0,3.1,0.3,3.1,0.3l-0.4,2.5
	c0,0-0.7-0.2-1.4-0.2s-1.3,0.2-1.3,0.9v1.9h2.7l-0.2,2.5h-2.5v8.6h-3.2v-8.6h-1.7L15.8,20.3L15.8,20.3z"/>
<g>
	<path fill="#FFFFFF" d="M19.8,7c8.8,0,16,7.2,16,16s-7.2,16-16,16s-16-7.2-16-16S10.9,7,19.8,7 M19.8,5c-9.9,0-18,8.1-18,18
		c0,9.9,8.1,18,18,18s18-8.1,18-18C37.8,13.1,29.7,5,19.8,5L19.8,5z"/>
</g>
</svg>
